<svg width="149" height="42" viewBox="0 0 149 42" fill="none" xmlns="http://www.w3.org/2000/svg">
<g clip-path="url(#clip0_1_212)">
<rect x="108.364" width="39.1313" height="39.1313" rx="15.0505" fill="#D3204B"/>
<path d="M147.683 37.9918L143.376 28.1105C142.984 27.2113 141.851 26.9213 141.075 27.5218L133.221 33.6026C132.259 34.3473 132.532 35.8663 133.693 36.2292L145.855 40.0297C147.086 40.4143 148.199 39.1739 147.683 37.9918Z" fill="#D3204B"/>
</g>
<path d="M2.49838 29V7.92929H12.0705C14.3582 7.92929 16.375 8.37077 18.1208 9.25374C19.8667 10.1166 21.2312 11.3307 22.2145 12.896C23.1978 14.4612 23.6895 16.3174 23.6895 18.4646C23.6895 20.5918 23.1978 22.448 22.2145 24.0333C21.2312 25.5986 19.8667 26.8227 18.1208 27.7057C16.375 28.5686 14.3582 29 12.0705 29H2.49838ZM7.37475 24.9966H11.8297C13.2344 24.9966 14.4485 24.7357 15.4719 24.2139C16.5154 23.6721 17.3181 22.9096 17.88 21.9263C18.462 20.943 18.7529 19.7891 18.7529 18.4646C18.7529 17.1201 18.462 15.9663 17.88 15.003C17.3181 14.0197 16.5154 13.2672 15.4719 12.7455C14.4485 12.2036 13.2344 11.9327 11.8297 11.9327H7.37475V24.9966ZM27.0359 29V12.8057H31.7316V29H27.0359ZM29.3838 10.5481C28.5209 10.5481 27.8185 10.2972 27.2767 9.79555C26.7349 9.29387 26.464 8.67178 26.464 7.92929C26.464 7.1868 26.7349 6.56471 27.2767 6.06303C27.8185 5.56134 28.5209 5.3105 29.3838 5.3105C30.2467 5.3105 30.949 5.55131 31.4908 6.03293C32.0326 6.49448 32.3036 7.0965 32.3036 7.83899C32.3036 8.62161 32.0326 9.2738 31.4908 9.79555C30.9691 10.2972 30.2667 10.5481 29.3838 10.5481ZM41.538 29.2408C40.1533 29.2408 38.8189 29.0803 37.5345 28.7592C36.2703 28.418 35.2669 27.9966 34.5244 27.4949L36.0897 24.1236C36.8322 24.5852 37.7051 24.9665 38.7085 25.2675C39.7319 25.5484 40.7353 25.6889 41.7186 25.6889C42.8022 25.6889 43.5648 25.5585 44.0063 25.2976C44.4678 25.0367 44.6986 24.6755 44.6986 24.2139C44.6986 23.8327 44.518 23.5517 44.1568 23.3711C43.8156 23.1704 43.3541 23.0199 42.7721 22.9196C42.1902 22.8193 41.548 22.7189 40.8457 22.6186C40.1634 22.5182 39.471 22.3878 38.7687 22.2273C38.0663 22.0467 37.4242 21.7858 36.8422 21.4446C36.2603 21.1035 35.7887 20.642 35.4275 20.06C35.0863 19.478 34.9158 18.7255 34.9158 17.8024C34.9158 16.779 35.2067 15.876 35.7887 15.0933C36.3907 14.3107 37.2536 13.6987 38.3774 13.2572C39.5011 12.7956 40.8457 12.5648 42.4109 12.5648C43.5146 12.5648 44.6384 12.6853 45.7822 12.9261C46.9261 13.1669 47.8793 13.518 48.6418 13.9796L47.0766 17.3208C46.2939 16.8593 45.5013 16.5482 44.6986 16.3877C43.916 16.2071 43.1534 16.1168 42.4109 16.1168C41.3674 16.1168 40.6049 16.2572 40.1232 16.5382C39.6416 16.8191 39.4008 17.1803 39.4008 17.6218C39.4008 18.0232 39.5714 18.3242 39.9125 18.5248C40.2737 18.7255 40.7453 18.8861 41.3273 19.0065C41.9092 19.1269 42.5414 19.2372 43.2236 19.3376C43.926 19.4178 44.6284 19.5483 45.3307 19.7289C46.0331 19.9095 46.6652 20.1704 47.2271 20.5115C47.809 20.8326 48.2806 21.2841 48.6418 21.8661C49.003 22.4279 49.1836 23.1704 49.1836 24.0935C49.1836 25.0969 48.8826 25.9899 48.2806 26.7725C47.6786 27.5351 46.8057 28.1371 45.6618 28.5786C44.5381 29.0201 43.1634 29.2408 41.538 29.2408ZM58.974 29.2408C57.4489 29.2408 56.0743 28.8997 54.8502 28.2174C53.626 27.5351 52.6528 26.5719 51.9304 25.3277C51.228 24.0835 50.8768 22.6086 50.8768 20.9028C50.8768 19.2172 51.228 17.7523 51.9304 16.5081C52.6528 15.2639 53.626 14.3007 54.8502 13.6184C56.0743 12.916 57.4489 12.5648 58.974 12.5648C60.3988 12.5648 61.6128 12.8659 62.6162 13.4679C63.6397 14.0699 64.4223 14.983 64.9641 16.2071C65.5059 17.4312 65.7768 18.9964 65.7768 20.9028C65.7768 22.7892 65.4959 24.3544 64.934 25.5986C64.3721 26.8227 63.5794 27.7358 62.556 28.3378C61.5326 28.9398 60.3386 29.2408 58.974 29.2408ZM59.7867 25.3879C60.5493 25.3879 61.2416 25.2073 61.8637 24.8461C62.4858 24.4848 62.9774 23.9731 63.3386 23.3109C63.7199 22.6286 63.9106 21.8259 63.9106 20.9028C63.9106 19.9597 63.7199 19.157 63.3386 18.4947C62.9774 17.8325 62.4858 17.3208 61.8637 16.9596C61.2416 16.5984 60.5493 16.4178 59.7867 16.4178C59.0041 16.4178 58.3017 16.5984 57.6797 16.9596C57.0576 17.3208 56.5559 17.8325 56.1746 18.4947C55.8134 19.157 55.6328 19.9597 55.6328 20.9028C55.6328 21.8259 55.8134 22.6286 56.1746 23.3109C56.5559 23.9731 57.0576 24.4848 57.6797 24.8461C58.3017 25.2073 59.0041 25.3879 59.7867 25.3879ZM63.8203 34.8396V25.719L64.1213 20.9329L64.031 16.1168V12.8057H68.516V34.8396H63.8203ZM79.6964 29.2408C78.3519 29.2408 77.1479 28.9799 76.0843 28.4582C75.0408 27.9364 74.2281 27.1438 73.6461 26.0802C73.0642 24.9966 72.7732 23.622 72.7732 21.9564V12.8057H77.4689V21.264C77.4689 22.6086 77.7499 23.6019 78.3118 24.244C78.8937 24.8661 79.7065 25.1772 80.75 25.1772C81.4724 25.1772 82.1145 25.0267 82.6764 24.7257C83.2383 24.4046 83.6798 23.923 84.0009 23.2808C84.3219 22.6186 84.4825 21.7958 84.4825 20.8125V12.8057H89.1782V29H84.7233V24.5451L85.536 25.8394C84.9942 26.9632 84.1915 27.816 83.1279 28.398C82.0844 28.9599 80.9406 29.2408 79.6964 29.2408ZM93.5285 29V12.8057H98.2243V29H93.5285ZM95.8764 10.5481C95.0135 10.5481 94.3112 10.2972 93.7694 9.79555C93.2275 9.29387 92.9566 8.67178 92.9566 7.92929C92.9566 7.1868 93.2275 6.56471 93.7694 6.06303C94.3112 5.56134 95.0135 5.3105 95.8764 5.3105C96.7393 5.3105 97.4417 5.55131 97.9835 6.03293C98.5253 6.49448 98.7962 7.0965 98.7962 7.83899C98.7962 8.62161 98.5253 9.2738 97.9835 9.79555C97.4617 10.2972 96.7594 10.5481 95.8764 10.5481ZM109.205 29.2408C107.298 29.2408 105.813 28.7592 104.75 27.796C103.686 26.8127 103.154 25.3578 103.154 23.4313V9.22364H107.85V23.3711C107.85 24.0534 108.031 24.5852 108.392 24.9665C108.753 25.3277 109.245 25.5083 109.867 25.5083C110.609 25.5083 111.241 25.3076 111.763 24.9063L113.027 28.2174C112.546 28.5585 111.964 28.8194 111.282 29C110.619 29.1605 109.927 29.2408 109.205 29.2408ZM100.656 16.779V13.1669H111.884V16.779H100.656ZM123.201 29.2408C121.354 29.2408 119.729 28.8796 118.324 28.1572C116.94 27.4347 115.866 26.4514 115.103 25.2073C114.341 23.943 113.96 22.5082 113.96 20.9028C113.96 19.2774 114.331 17.8426 115.073 16.5984C115.836 15.3341 116.869 14.3508 118.174 13.6485C119.478 12.9261 120.953 12.5648 122.599 12.5648C124.184 12.5648 125.609 12.906 126.873 13.5883C128.157 14.2505 129.171 15.2137 129.913 16.478C130.656 17.7222 131.027 19.2172 131.027 20.963C131.027 21.1436 131.017 21.3543 130.997 21.5952C130.977 21.8159 130.957 22.0266 130.937 22.2273H117.782V19.4881H128.468L126.662 20.3008C126.662 19.458 126.492 18.7255 126.151 18.1034C125.809 17.4813 125.338 16.9997 124.736 16.6586C124.134 16.2974 123.431 16.1168 122.629 16.1168C121.826 16.1168 121.114 16.2974 120.492 16.6586C119.89 16.9997 119.418 17.4914 119.077 18.1335C118.736 18.7556 118.565 19.4981 118.565 20.361V21.0834C118.565 21.9664 118.756 22.749 119.137 23.4313C119.538 24.0935 120.09 24.6053 120.793 24.9665C121.515 25.3076 122.358 25.4782 123.321 25.4782C124.184 25.4782 124.936 25.3477 125.579 25.0869C126.241 24.826 126.843 24.4347 127.385 23.9129L129.883 26.622C129.141 27.4648 128.207 28.117 127.084 28.5786C125.96 29.0201 124.666 29.2408 123.201 29.2408ZM135.929 29.2408C135.126 29.2408 134.434 28.9699 133.852 28.4281C133.29 27.8662 133.009 27.1538 133.009 26.2909C133.009 25.428 133.29 24.7357 133.852 24.2139C134.434 23.6721 135.126 23.4012 135.929 23.4012C136.752 23.4012 137.444 23.6721 138.006 24.2139C138.568 24.7357 138.849 25.428 138.849 26.2909C138.849 27.1538 138.568 27.8662 138.006 28.4281C137.444 28.9699 136.752 29.2408 135.929 29.2408Z" fill="white"/>
<defs>
<clipPath id="clip0_1_212">
<rect width="40.6364" height="41.0126" fill="white" transform="translate(108.364)"/>
</clipPath>
</defs>
</svg>
